<svg version="1.1" xmlns="http://www.w3.org/2000/svg" xmlns:xlink="http://www.w3.org/1999/xlink" width="397" height="397"><defs><clipPath id="JbyESEWtdIyv"><path fill="none" stroke="none" d=" M 0 0 L 397 0 L 397 397 L 0 397 L 0 0 Z"/></clipPath></defs><g transform="scale(1,1)" clip-path="url(#JbyESEWtdIyv)"><g><path fill="none" stroke="rgb(192,192,192)" paint-order="fill stroke markers" d=" M 38.5 0.5 L 38.5 397.5 M 38.5 0.5 L 38.5 397.5 M 88.5 0.5 L 88.5 397.5 M 138.5 0.5 L 138.5 397.5 M 237.5 0.5 L 237.5 397.5 M 287.5 0.5 L 287.5 397.5 M 337.5 0.5 L 337.5 397.5 M 387.5 0.5 L 387.5 397.5" stroke-opacity="1" stroke-linecap="round" stroke-linejoin="round" stroke-miterlimit="10"/><path fill="none" stroke="rgb(192,192,192)" paint-order="fill stroke markers" d=" M 8.5 0.5 L 8.5 397.5 M 18.5 0.5 L 18.5 397.5 M 28.5 0.5 L 28.5 397.5 M 48.5 0.5 L 48.5 397.5 M 58.5 0.5 L 58.5 397.5 M 68.5 0.5 L 68.5 397.5 M 78.5 0.5 L 78.5 397.5 M 98.5 0.5 L 98.5 397.5 M 108.5 0.5 L 108.5 397.5 M 118.5 0.5 L 118.5 397.5 M 128.5 0.5 L 128.5 397.5 M 148.5 0.5 L 148.5 397.5 M 158.5 0.5 L 158.5 397.5 M 168.5 0.5 L 168.5 397.5 M 178.5 0.5 L 178.5 397.5 M 198.5 0.5 L 198.5 397.5 M 208.5 0.5 L 208.5 397.5 M 217.5 0.5 L 217.5 397.5 M 227.5 0.5 L 227.5 397.5 M 247.5 0.5 L 247.5 397.5 M 257.5 0.5 L 257.5 397.5 M 267.5 0.5 L 267.5 397.5 M 277.5 0.5 L 277.5 397.5 M 297.5 0.5 L 297.5 397.5 M 307.5 0.5 L 307.5 397.5 M 317.5 0.5 L 317.5 397.5 M 327.5 0.5 L 327.5 397.5 M 347.5 0.5 L 347.5 397.5 M 357.5 0.5 L 357.5 397.5 M 367.5 0.5 L 367.5 397.5 M 377.5 0.5 L 377.5 397.5" stroke-opacity="0.23529411764705882" stroke-linecap="round" stroke-linejoin="round" stroke-miterlimit="10"/><path fill="none" stroke="rgb(192,192,192)" paint-order="fill stroke markers" d=" M 0.5 30.5 L 397.5 30.5 M 0.5 30.5 L 397.5 30.5 M 0.5 80.5 L 397.5 80.5 M 0.5 130.5 L 397.5 130.5 M 0.5 180.5 L 397.5 180.5 M 0.5 230.5 L 397.5 230.5 M 0.5 331.5 L 397.5 331.5 M 0.5 381.5 L 397.5 381.5" stroke-opacity="1" stroke-linecap="round" stroke-linejoin="round" stroke-miterlimit="10"/><path fill="none" stroke="rgb(192,192,192)" paint-order="fill stroke markers" d=" M 0.5 0.5 L 397.5 0.5 M 0.5 0.5 L 397.5 0.5 M 0.5 10.5 L 397.5 10.5 M 0.5 20.5 L 397.5 20.5 M 0.5 40.5 L 397.5 40.5 M 0.5 50.5 L 397.5 50.5 M 0.5 60.5 L 397.5 60.5 M 0.5 70.5 L 397.5 70.5 M 0.5 90.5 L 397.5 90.5 M 0.5 100.5 L 397.5 100.5 M 0.5 110.5 L 397.5 110.5 M 0.5 120.5 L 397.5 120.5 M 0.5 140.5 L 397.5 140.5 M 0.5 150.5 L 397.5 150.5 M 0.5 160.5 L 397.5 160.5 M 0.5 170.5 L 397.5 170.5 M 0.5 190.5 L 397.5 190.5 M 0.5 200.5 L 397.5 200.5 M 0.5 210.5 L 397.5 210.5 M 0.5 220.5 L 397.5 220.5 M 0.5 240.5 L 397.5 240.5 M 0.5 250.5 L 397.5 250.5 M 0.5 260.5 L 397.5 260.5 M 0.5 270.5 L 397.5 270.5 M 0.5 290.5 L 397.5 290.5 M 0.5 300.5 L 397.5 300.5 M 0.5 310.5 L 397.5 310.5 M 0.5 320.5 L 397.5 320.5 M 0.5 340.5 L 397.5 340.5 M 0.5 350.5 L 397.5 350.5 M 0.5 360.5 L 397.5 360.5 M 0.5 371.5 L 397.5 371.5 M 0.5 391.5 L 397.5 391.5" stroke-opacity="0.23529411764705882" stroke-linecap="round" stroke-linejoin="round" stroke-miterlimit="10"/><path fill="none" stroke="rgb(0,0,0)" paint-order="fill stroke markers" d=" M 188 3 L 188 397" stroke-opacity="1" stroke-miterlimit="10" stroke-width="2"/><path fill="none" stroke="rgb(0,0,0)" paint-order="fill stroke markers" d=" M 188 2 L 182 8" stroke-opacity="1" stroke-miterlimit="10" stroke-width="2"/><path fill="none" stroke="rgb(0,0,0)" paint-order="fill stroke markers" d=" M 188 2 L 194 8" stroke-opacity="1" stroke-miterlimit="10" stroke-width="2"/><path fill="none" stroke="rgb(0,0,0)" paint-order="fill stroke markers" d=" M 0 281 L 394 281" stroke-opacity="1" stroke-miterlimit="10" stroke-width="2"/><path fill="none" stroke="rgb(0,0,0)" paint-order="fill stroke markers" d=" M 395 281 L 389 275" stroke-opacity="1" stroke-miterlimit="10" stroke-width="2"/><path fill="none" stroke="rgb(0,0,0)" paint-order="fill stroke markers" d=" M 395 281 L 389 287" stroke-opacity="1" stroke-miterlimit="10" stroke-width="2"/><text fill="none" stroke="rgb(255,255,255)" font-family="geogebra-sans-serif, sans-serif" font-size="15px" font-style="normal" font-weight="normal" text-decoration="normal" x="31" y="299" text-anchor="start" dominant-baseline="alphabetic" stroke-opacity="1" stroke-linejoin="bevel" stroke-miterlimit="10" stroke-width="5">–3</text><text fill="rgb(0,0,0)" stroke="none" font-family="geogebra-sans-serif, sans-serif" font-size="15px" font-style="normal" font-weight="normal" text-decoration="normal" x="31" y="299" text-anchor="start" dominant-baseline="alphabetic" fill-opacity="1">–3</text><text fill="none" stroke="rgb(255,255,255)" font-family="geogebra-sans-serif, sans-serif" font-size="15px" font-style="normal" font-weight="normal" text-decoration="normal" x="81" y="299" text-anchor="start" dominant-baseline="alphabetic" stroke-opacity="1" stroke-linejoin="bevel" stroke-miterlimit="10" stroke-width="5">–2</text><text fill="rgb(0,0,0)" stroke="none" font-family="geogebra-sans-serif, sans-serif" font-size="15px" font-style="normal" font-weight="normal" text-decoration="normal" x="81" y="299" text-anchor="start" dominant-baseline="alphabetic" fill-opacity="1">–2</text><text fill="none" stroke="rgb(255,255,255)" font-family="geogebra-sans-serif, sans-serif" font-size="15px" font-style="normal" font-weight="normal" text-decoration="normal" x="131" y="299" text-anchor="start" dominant-baseline="alphabetic" stroke-opacity="1" stroke-linejoin="bevel" stroke-miterlimit="10" stroke-width="5">–1</text><text fill="rgb(0,0,0)" stroke="none" font-family="geogebra-sans-serif, sans-serif" font-size="15px" font-style="normal" font-weight="normal" text-decoration="normal" x="131" y="299" text-anchor="start" dominant-baseline="alphabetic" fill-opacity="1">–1</text><text fill="none" stroke="rgb(255,255,255)" font-family="geogebra-sans-serif, sans-serif" font-size="15px" font-style="normal" font-weight="normal" text-decoration="normal" x="235" y="299" text-anchor="start" dominant-baseline="alphabetic" stroke-opacity="1" stroke-linejoin="bevel" stroke-miterlimit="10" stroke-width="5">1</text><text fill="rgb(0,0,0)" stroke="none" font-family="geogebra-sans-serif, sans-serif" font-size="15px" font-style="normal" font-weight="normal" text-decoration="normal" x="235" y="299" text-anchor="start" dominant-baseline="alphabetic" fill-opacity="1">1</text><text fill="none" stroke="rgb(255,255,255)" font-family="geogebra-sans-serif, sans-serif" font-size="15px" font-style="normal" font-weight="normal" text-decoration="normal" x="285" y="299" text-anchor="start" dominant-baseline="alphabetic" stroke-opacity="1" stroke-linejoin="bevel" stroke-miterlimit="10" stroke-width="5">2</text><text fill="rgb(0,0,0)" stroke="none" font-family="geogebra-sans-serif, sans-serif" font-size="15px" font-style="normal" font-weight="normal" text-decoration="normal" x="285" y="299" text-anchor="start" dominant-baseline="alphabetic" fill-opacity="1">2</text><text fill="none" stroke="rgb(255,255,255)" font-family="geogebra-sans-serif, sans-serif" font-size="15px" font-style="normal" font-weight="normal" text-decoration="normal" x="335" y="299" text-anchor="start" dominant-baseline="alphabetic" stroke-opacity="1" stroke-linejoin="bevel" stroke-miterlimit="10" stroke-width="5">3</text><text fill="rgb(0,0,0)" stroke="none" font-family="geogebra-sans-serif, sans-serif" font-size="15px" font-style="normal" font-weight="normal" text-decoration="normal" x="335" y="299" text-anchor="start" dominant-baseline="alphabetic" fill-opacity="1">3</text><text fill="none" stroke="rgb(255,255,255)" font-family="geogebra-sans-serif, sans-serif" font-size="15px" font-style="normal" font-weight="normal" text-decoration="normal" x="165" y="387" text-anchor="start" dominant-baseline="alphabetic" stroke-opacity="1" stroke-linejoin="bevel" stroke-miterlimit="10" stroke-width="5">–2</text><text fill="rgb(0,0,0)" stroke="none" font-family="geogebra-sans-serif, sans-serif" font-size="15px" font-style="normal" font-weight="normal" text-decoration="normal" x="165" y="387" text-anchor="start" dominant-baseline="alphabetic" fill-opacity="1">–2</text><text fill="none" stroke="rgb(255,255,255)" font-family="geogebra-sans-serif, sans-serif" font-size="15px" font-style="normal" font-weight="normal" text-decoration="normal" x="165" y="337" text-anchor="start" dominant-baseline="alphabetic" stroke-opacity="1" stroke-linejoin="bevel" stroke-miterlimit="10" stroke-width="5">–1</text><text fill="rgb(0,0,0)" stroke="none" font-family="geogebra-sans-serif, sans-serif" font-size="15px" font-style="normal" font-weight="normal" text-decoration="normal" x="165" y="337" text-anchor="start" dominant-baseline="alphabetic" fill-opacity="1">–1</text><text fill="none" stroke="rgb(255,255,255)" font-family="geogebra-sans-serif, sans-serif" font-size="15px" font-style="normal" font-weight="normal" text-decoration="normal" x="173" y="236" text-anchor="start" dominant-baseline="alphabetic" stroke-opacity="1" stroke-linejoin="bevel" stroke-miterlimit="10" stroke-width="5">1</text><text fill="rgb(0,0,0)" stroke="none" font-family="geogebra-sans-serif, sans-serif" font-size="15px" font-style="normal" font-weight="normal" text-decoration="normal" x="173" y="236" text-anchor="start" dominant-baseline="alphabetic" fill-opacity="1">1</text><text fill="none" stroke="rgb(255,255,255)" font-family="geogebra-sans-serif, sans-serif" font-size="15px" font-style="normal" font-weight="normal" text-decoration="normal" x="173" y="186" text-anchor="start" dominant-baseline="alphabetic" stroke-opacity="1" stroke-linejoin="bevel" stroke-miterlimit="10" stroke-width="5">2</text><text fill="rgb(0,0,0)" stroke="none" font-family="geogebra-sans-serif, sans-serif" font-size="15px" font-style="normal" font-weight="normal" text-decoration="normal" x="173" y="186" text-anchor="start" dominant-baseline="alphabetic" fill-opacity="1">2</text><text fill="none" stroke="rgb(255,255,255)" font-family="geogebra-sans-serif, sans-serif" font-size="15px" font-style="normal" font-weight="normal" text-decoration="normal" x="173" y="136" text-anchor="start" dominant-baseline="alphabetic" stroke-opacity="1" stroke-linejoin="bevel" stroke-miterlimit="10" stroke-width="5">3</text><text fill="rgb(0,0,0)" stroke="none" font-family="geogebra-sans-serif, sans-serif" font-size="15px" font-style="normal" font-weight="normal" text-decoration="normal" x="173" y="136" text-anchor="start" dominant-baseline="alphabetic" fill-opacity="1">3</text><text fill="none" stroke="rgb(255,255,255)" font-family="geogebra-sans-serif, sans-serif" font-size="15px" font-style="normal" font-weight="normal" text-decoration="normal" x="173" y="86" text-anchor="start" dominant-baseline="alphabetic" stroke-opacity="1" stroke-linejoin="bevel" stroke-miterlimit="10" stroke-width="5">4</text><text fill="rgb(0,0,0)" stroke="none" font-family="geogebra-sans-serif, sans-serif" font-size="15px" font-style="normal" font-weight="normal" text-decoration="normal" x="173" y="86" text-anchor="start" dominant-baseline="alphabetic" fill-opacity="1">4</text><text fill="none" stroke="rgb(255,255,255)" font-family="geogebra-sans-serif, sans-serif" font-size="15px" font-style="normal" font-weight="normal" text-decoration="normal" x="173" y="36" text-anchor="start" dominant-baseline="alphabetic" stroke-opacity="1" stroke-linejoin="bevel" stroke-miterlimit="10" stroke-width="5">5</text><text fill="rgb(0,0,0)" stroke="none" font-family="geogebra-sans-serif, sans-serif" font-size="15px" font-style="normal" font-weight="normal" text-decoration="normal" x="173" y="36" text-anchor="start" dominant-baseline="alphabetic" fill-opacity="1">5</text><text fill="none" stroke="rgb(255,255,255)" font-family="geogebra-sans-serif, sans-serif" font-size="15px" font-style="normal" font-weight="normal" text-decoration="normal" x="173" y="299" text-anchor="start" dominant-baseline="alphabetic" stroke-opacity="1" stroke-linejoin="bevel" stroke-miterlimit="10" stroke-width="5">0</text><text fill="rgb(0,0,0)" stroke="none" font-family="geogebra-sans-serif, sans-serif" font-size="15px" font-style="normal" font-weight="normal" text-decoration="normal" x="173" y="299" text-anchor="start" dominant-baseline="alphabetic" fill-opacity="1">0</text><path fill="none" stroke="rgb(0,100,0)" paint-order="fill stroke markers" d=" M 0 92.99999999999966 L 3.1015625 96.10156249999966 L 6.203125 99.20312499999966 L 9.3046875 102.30468749999966 L 12.40625 105.40624999999966 L 15.5078125 108.50781249999969 L 18.609375 111.60937499999969 L 21.7109375 114.71093749999969 L 24.8125 117.81249999999969 L 27.9140625 120.91406249999969 L 31.015625 124.01562499999969 L 34.1171875 127.11718749999969 L 37.21875 130.21874999999972 L 40.3203125 133.32031249999972 L 43.421875 136.42187499999972 L 46.5234375 139.52343749999972 L 49.625 142.62499999999972 L 52.7265625 145.72656249999972 L 55.828125 148.82812499999972 L 58.9296875 151.92968749999974 L 62.031250000000014 155.03124999999977 L 65.1328125 158.13281249999977 L 68.234375 161.23437499999977 L 71.3359375 164.33593749999977 L 74.43750000000001 167.43749999999977 L 77.53906249999999 170.53906249999977 L 80.640625 173.64062499999977 L 83.7421875 176.74218749999977 L 86.84375 179.84374999999977 L 89.9453125 182.9453124999998 L 93.046875 186.0468749999998 L 96.14843750000001 189.1484374999998 L 99.25 192.24999999999983 L 102.3515625 195.35156249999983 L 105.453125 198.45312499999983 L 108.55468750000001 201.55468749999983 L 111.65625000000001 204.65624999999983 L 114.7578125 207.75781249999983 L 117.859375 210.85937499999983 L 120.9609375 213.96093749999983 L 124.06250000000001 217.06249999999986 L 127.16406250000001 220.16406249999986 L 130.265625 223.26562499999986 L 133.3671875 226.36718749999986 L 136.46875 229.46874999999986 L 139.5703125 232.57031249999986 L 142.671875 235.6718749999999 L 145.7734375 238.7734374999999 L 148.875 241.8749999999999 L 151.9765625 244.9765624999999 L 155.078125 248.0781249999999 L 158.17968750000003 251.17968749999991 L 161.28125 254.28124999999991 L 164.3828125 257.3828124999999 L 167.484375 260.4843749999999 L 170.5859375 263.58593749999994 L 173.6875 266.68749999999994 L 176.78906250000003 269.78906249999994 L 179.890625 272.89062499999994 L 182.9921875 275.99218749999994 L 186.09375 279.09374999999994 L 187.64453125 280.64453124999994 L 188.22607421875 280.77392578124994 L 189.1953125 279.80468749999994 L 192.29687500000003 276.70312499999994 L 195.3984375 273.60156249999994 L 198.5 270.49999999999994 L 201.60156250000003 267.3984374999999 L 204.703125 264.2968749999999 L 207.80468750000003 261.1953124999999 L 210.90625 258.0937499999999 L 214.0078125 254.9921874999999 L 217.10937500000003 251.89062499999986 L 220.2109375 248.7890624999999 L 223.31250000000003 245.68749999999986 L 226.4140625 242.5859374999999 L 229.515625 239.48437499999986 L 232.61718750000003 236.38281249999983 L 235.71875 233.28124999999986 L 238.82031250000003 230.17968749999983 L 241.921875 227.07812499999986 L 245.0234375 223.97656249999983 L 248.12500000000003 220.87499999999983 L 251.2265625 217.77343749999983 L 254.32812500000003 214.67187499999983 L 257.4296875 211.57031249999983 L 260.53125 208.46874999999983 L 263.6328125 205.36718749999983 L 266.734375 202.26562499999983 L 269.8359375 199.16406249999977 L 272.9375 196.0624999999998 L 276.0390625 192.96093749999977 L 279.140625 189.8593749999998 L 282.2421875 186.75781249999977 L 285.34375 183.65624999999977 L 288.4453125 180.55468749999977 L 291.546875 177.45312499999977 L 294.6484375 174.35156249999977 L 297.75 171.24999999999977 L 300.8515625 168.14843749999972 L 303.953125 165.04687499999977 L 307.0546875 161.94531249999972 L 310.15625 158.84374999999977 L 313.2578125 155.74218749999972 L 316.359375 152.64062499999972 L 319.4609375 149.53906249999972 L 322.5625 146.43749999999972 L 325.6640625 143.33593749999972 L 328.765625 140.23437499999972 L 331.8671875 137.1328124999997 L 334.96875 134.0312499999997 L 338.0703125 130.9296874999997 L 341.171875 127.82812499999969 L 344.2734375 124.72656249999969 L 347.375 121.62499999999969 L 350.4765625 118.52343749999969 L 353.578125 115.42187499999966 L 356.6796875 112.32031249999966 L 359.78125 109.21874999999966 L 362.8828125 106.11718749999966 L 365.984375 103.01562499999966 L 369.0859375 99.91406249999963 L 372.1875 96.81249999999966 L 375.2890625 93.71093749999963 L 378.390625 90.60937499999963 L 381.4921875 87.50781249999963 L 384.59375 84.4062499999996 L 387.6953125 81.30468749999963 L 390.796875 78.20312499999963 L 393.8984375 75.1015624999996 L 397 71.99999999999963" stroke-opacity="1" stroke-linecap="round" stroke-linejoin="round" stroke-miterlimit="10" stroke-width="4"/><g transform="scale(23,23)"><g transform="translate(8.565217391304348,0.9088158695652174)"><path fill="rgb(0,0,0)" stroke="none" paint-order="stroke fill markers" d=" M 0.486 -0.381 L 0.39 0.001 Q 0.366 0.099 0.28300000000000003 0.16 Q 0.222 0.20500000000000002 0.156 0.20500000000000002 Q 0.089 0.20500000000000002 0.061 0.159 Q 0.05 0.14 0.05 0.11800000000000001 Q 0.05 0.067 0.091 0.055 Q 0.099 0.053 0.106 0.053 Q 0.138 0.053 0.14200000000000002 0.081 Q 0.14300000000000002 0.084 0.14300000000000002 0.088 Q 0.14300000000000002 0.111 0.123 0.129 Q 0.109 0.14100000000000001 0.08 0.14100000000000001 Q 0.098 0.183 0.156 0.183 Q 0.218 0.183 0.266 0.12 Q 0.305 0.068 0.328 -0.021 Q 0.329 -0.025 0.331 -0.034 Q 0.28600000000000003 0.011 0.23 0.011 Q 0.15 0.011 0.121 -0.048 Q 0.108 -0.074 0.108 -0.108 Q 0.108 -0.163 0.161 -0.305 Q 0.163 -0.311 0.166 -0.318 Q 0.183 -0.364 0.183 -0.388 Q 0.183 -0.42 0.158 -0.42 Q 0.10300000000000001 -0.42 0.068 -0.329 L 0.068 -0.328 Q 0.062 -0.313 0.057 -0.296 Q 0.046 -0.279 0.041 -0.278 Q 0.029 -0.278 0.029 -0.28800000000000003 Q 0.029 -0.306 0.05 -0.35100000000000003 Q 0.094 -0.442 0.161 -0.442 Q 0.214 -0.442 0.23500000000000001 -0.397 Q 0.243 -0.38 0.243 -0.36 Q 0.243 -0.339 0.223 -0.28800000000000003 Q 0.17200000000000001 -0.156 0.17200000000000001 -0.092 Q 0.17200000000000001 -0.011 0.234 -0.011 Q 0.292 -0.011 0.335 -0.073 Q 0.34500000000000003 -0.088 0.34700000000000003 -0.096 L 0.392 -0.276 Q 0.399 -0.309 0.41200000000000003 -0.356 Q 0.422 -0.399 0.426 -0.41000000000000003 Q 0.439 -0.431 0.461 -0.431 Q 0.486 -0.426 0.49 -0.404 Q 0.49 -0.395 0.486 -0.381 Z"/></g></g><g transform="scale(23,23)"><g transform="translate(16,11.604468043478262)"><path fill="rgb(0,0,0)" stroke="none" paint-order="stroke fill markers" d=" M 0.334 -0.302 L 0.3 -0.165 Q 0.28300000000000003 -0.097 0.28300000000000003 -0.077 Q 0.28300000000000003 -0.025 0.32 -0.014 Q 0.328 -0.011 0.338 -0.011 Q 0.388 -0.011 0.429 -0.061 Q 0.456 -0.093 0.47100000000000003 -0.14200000000000002 Q 0.47400000000000003 -0.153 0.484 -0.153 Q 0.496 -0.153 0.496 -0.14300000000000002 Q 0.496 -0.11800000000000001 0.465 -0.07100000000000001 Q 0.41100000000000003 0.011 0.336 0.011 Q 0.268 0.011 0.23700000000000002 -0.046 Q 0.231 -0.055 0.228 -0.065 Q 0.20400000000000001 -0.017 0.162 0.002 Q 0.14300000000000002 0.011 0.123 0.011 Q 0.063 0.011 0.039 -0.024 Q 0.029 -0.037 0.029 -0.055 Q 0.029 -0.092 0.061 -0.107 Q 0.07200000000000001 -0.113 0.084 -0.113 Q 0.114 -0.113 0.12 -0.088 Q 0.121 -0.083 0.121 -0.078 Q 0.121 -0.044 0.08700000000000001 -0.028 Q 0.081 -0.025 0.074 -0.024 Q 0.095 -0.011 0.124 -0.011 Q 0.177 -0.011 0.20800000000000002 -0.082 Q 0.214 -0.097 0.219 -0.115 Q 0.273 -0.319 0.273 -0.353 Q 0.267 -0.41500000000000004 0.219 -0.42 Q 0.167 -0.42 0.124 -0.367 L 0.124 -0.366 Q 0.124 -0.365 0.123 -0.365 Q 0.108 -0.34500000000000003 0.096 -0.319 Q 0.091 -0.307 0.08700000000000001 -0.295 L 0.085 -0.289 Q 0.083 -0.278 0.07200000000000001 -0.278 Q 0.06 -0.278 0.06 -0.28800000000000003 Q 0.06 -0.313 0.092 -0.36 Q 0.146 -0.442 0.221 -0.442 Q 0.298 -0.442 0.329 -0.366 Q 0.361 -0.428 0.41400000000000003 -0.44 Q 0.424 -0.442 0.434 -0.442 Q 0.493 -0.442 0.517 -0.40900000000000003 Q 0.527 -0.395 0.527 -0.376 Q 0.527 -0.335 0.49 -0.321 Q 0.481 -0.318 0.47300000000000003 -0.318 Q 0.442 -0.318 0.436 -0.34500000000000003 Q 0.435 -0.34900000000000003 0.435 -0.353 Q 0.435 -0.383 0.464 -0.4 Q 0.47300000000000003 -0.405 0.483 -0.40700000000000003 Q 0.462 -0.42 0.433 -0.42 Q 0.365 -0.42 0.337 -0.314 Q 0.335 -0.308 0.334 -0.302 Z"/></g></g><g transform="scale(31,31)"><g transform="translate(9.225806451612904,4.984767580645161)"><path fill="rgb(0,100,0)" stroke="none" paint-order="stroke fill markers" d=" M 0.367 -0.4 L 0.367 -0.4 L 0.307 -0.083 Q 0.298 -0.021 0.271 0.059000000000000004 Q 0.261 0.088 0.251 0.108 Q 0.216 0.182 0.164 0.2 Q 0.151 0.20500000000000002 0.138 0.20500000000000002 Q 0.088 0.20500000000000002 0.064 0.171 Q 0.053 0.156 0.053 0.136 Q 0.053 0.096 0.08700000000000001 0.081 Q 0.097 0.076 0.108 0.076 Q 0.137 0.076 0.14400000000000002 0.101 Q 0.145 0.106 0.145 0.111 Q 0.145 0.145 0.115 0.159 Q 0.10400000000000001 0.164 0.09 0.165 Q 0.109 0.183 0.138 0.183 Q 0.182 0.183 0.20700000000000002 0.085 Q 0.212 0.062 0.219 0.025 L 0.225 -0.005 L 0.3 -0.4 L 0.234 -0.4 Q 0.209 -0.4 0.20700000000000002 -0.40800000000000003 L 0.20600000000000002 -0.40800000000000003 L 0.20600000000000002 -0.41200000000000003 Q 0.20600000000000002 -0.429 0.223 -0.431 L 0.223 -0.431 L 0.23600000000000002 -0.431 L 0.305 -0.431 Q 0.329 -0.556 0.338 -0.588 Q 0.368 -0.6880000000000001 0.444 -0.7030000000000001 Q 0.455 -0.705 0.465 -0.705 Q 0.517 -0.705 0.541 -0.671 L 0.541 -0.671 Q 0.552 -0.656 0.552 -0.636 Q 0.552 -0.596 0.518 -0.581 Q 0.508 -0.5760000000000001 0.497 -0.5760000000000001 Q 0.468 -0.5760000000000001 0.461 -0.601 Q 0.46 -0.606 0.46 -0.611 Q 0.46 -0.642 0.488 -0.657 Q 0.499 -0.664 0.514 -0.665 Q 0.495 -0.683 0.465 -0.683 Q 0.434 -0.683 0.418 -0.649 Q 0.41100000000000003 -0.635 0.394 -0.545 L 0.373 -0.431 L 0.456 -0.431 Q 0.481 -0.431 0.483 -0.42 Q 0.483 -0.402 0.467 -0.4 L 0.466 -0.4 L 0.453 -0.4 L 0.367 -0.4 Z"/></g></g></g></g></svg>