<?xml version="1.0" encoding="UTF-8" standalone="no"?>
<!-- Created with Inkscape (http://www.inkscape.org/) -->

<svg
   xmlns:dc="http://purl.org/dc/elements/1.1/"
   xmlns:cc="http://creativecommons.org/ns#"
   xmlns:rdf="http://www.w3.org/1999/02/22-rdf-syntax-ns#"
   xmlns:svg="http://www.w3.org/2000/svg"
   xmlns="http://www.w3.org/2000/svg"
   xmlns:sodipodi="http://sodipodi.sourceforge.net/DTD/sodipodi-0.dtd"
   xmlns:inkscape="http://www.inkscape.org/namespaces/inkscape"
   width="151.46669mm"
   height="168.56238mm"
   viewBox="0 0 151.46669 168.56238"
   version="1.1"
   id="svg8"
   inkscape:version="0.92.1 r15371"
   sodipodi:docname="logo.svg"
   inkscape:export-filename="C:\Users\gksan\Dropbox\sites\cosma17\img\favicon.png"
   inkscape:export-xdpi="96"
   inkscape:export-ydpi="96">
  <defs
     id="defs2" />
  <sodipodi:namedview
     id="base"
     pagecolor="#ffffff"
     bordercolor="#666666"
     borderopacity="1.0"
     inkscape:pageopacity="0.0"
     inkscape:pageshadow="2"
     inkscape:zoom="0.49497475"
     inkscape:cx="-1256.93"
     inkscape:cy="622.44796"
     inkscape:document-units="mm"
     inkscape:current-layer="layer1"
     showgrid="false"
     inkscape:window-width="2560"
     inkscape:window-height="1017"
     inkscape:window-x="-8"
     inkscape:window-y="-8"
     inkscape:window-maximized="1"
     fit-margin-top="0"
     fit-margin-left="0"
     fit-margin-right="0"
     fit-margin-bottom="0" />
  <metadata
     id="metadata5">
    <rdf:RDF>
      <cc:Work
         rdf:about="">
        <dc:format>image/svg+xml</dc:format>
        <dc:type
           rdf:resource="http://purl.org/dc/dcmitype/StillImage" />
        <dc:title />
      </cc:Work>
    </rdf:RDF>
  </metadata>
  <g
     inkscape:label="Layer 1"
     inkscape:groupmode="layer"
     id="layer1"
     transform="translate(-11.396531,-106.25417)">
    <path
       style="fill:none;stroke:#000000;stroke-width:5.24483013;stroke-linecap:round;stroke-linejoin:miter;stroke-miterlimit:4;stroke-dasharray:none;stroke-opacity:1"
       d="m 87.129859,230.83791 v 41.31888"
       id="path4564"
       inkscape:connector-curvature="0" />
    <path
       style="fill:none;fill-opacity:1;stroke:#000000;stroke-width:5;stroke-linecap:round;stroke-linejoin:miter;stroke-miterlimit:4;stroke-dasharray:none;stroke-opacity:1"
       d="m 95.001016,264.50343 -0.348088,-34.7333"
       id="path4547-3"
       inkscape:connector-curvature="0"
       sodipodi:nodetypes="cc" />
    <path
       style="fill:none;fill-opacity:1;stroke:#000000;stroke-width:5;stroke-linecap:round;stroke-linejoin:miter;stroke-miterlimit:4;stroke-dasharray:none;stroke-opacity:1"
       d="m 79.296547,264.50751 0.539714,-34.73738"
       id="path4547"
       inkscape:connector-curvature="0"
       sodipodi:nodetypes="cc" />
    <path
       style="opacity:0.97600002;fill:none;fill-opacity:1;stroke:#000000;stroke-width:5;stroke-linecap:round;stroke-linejoin:round;stroke-miterlimit:4;stroke-dasharray:none;stroke-dashoffset:0;stroke-opacity:1"
       id="path4545"
       sodipodi:type="arc"
       sodipodi:cx="87.12986"
       sodipodi:cy="191.69582"
       sodipodi:rx="73.23185"
       sodipodi:ry="73.23185"
       sodipodi:start="1.6779673"
       sodipodi:end="1.4631056"
       d="M 79.296547,264.50751 A 73.23185,73.23185 0 0 1 14.002615,187.78303 73.23185,73.23185 0 0 1 87.110829,118.46397 73.23185,73.23185 0 0 1 160.25506,187.74502 73.23185,73.23185 0 0 1 95.001016,264.50343"
       sodipodi:open="true" />
    <g
       id="g4543"
       transform="matrix(0.16086235,0,0,0.16086235,15.051462,106.25417)"
       style="fill:#5d3f9e;fill-opacity:1">
      <g
         id="g4487"
         style="fill:#5d3f9e;fill-opacity:1">
        <path
           id="path4485"
           d="m 565.65,537.727 c 9.836,-45.773 15.408,-98.106 15.408,-153.699 0,-110.484 -19.464,-196.042 -53.142,-269.977 C 506.818,67.729 478.591,0 450.902,0 c -27.421,0 -56.854,68.503 -77.83,114.05 -34.021,73.852 -52.321,158.826 -52.321,269.977 0,53.134 5.096,103.289 14.124,147.587 L 235.869,669.798 V 896.15 l 135.8,-141.472 h 11.328 v 28.293 h 130.154 v -28.293 h 11.328 L 660.281,896.15 V 669.797 Z M 450.903,494.374 c -28.128,0 -50.929,-22.801 -50.929,-50.93 0,-28.128 22.802,-50.93 50.929,-50.93 28.13,0 50.931,22.802 50.931,50.93 0,28.129 -22.802,50.93 -50.931,50.93 z m 0,-164.106 c -28.128,0 -50.929,-22.801 -50.929,-50.93 0,-28.126 22.802,-50.929 50.929,-50.929 28.13,0 50.931,22.803 50.931,50.929 0,28.128 -22.802,50.93 -50.931,50.93 z"
           inkscape:connector-curvature="0"
           style="fill:#5d3f9e;fill-opacity:1" />
      </g>
      <g
         id="g4489"
         style="fill:#5d3f9e;fill-opacity:1" />
      <g
         id="g4491"
         style="fill:#5d3f9e;fill-opacity:1" />
      <g
         id="g4493"
         style="fill:#5d3f9e;fill-opacity:1" />
      <g
         id="g4495"
         style="fill:#5d3f9e;fill-opacity:1" />
      <g
         id="g4497"
         style="fill:#5d3f9e;fill-opacity:1" />
      <g
         id="g4499"
         style="fill:#5d3f9e;fill-opacity:1" />
      <g
         id="g4501"
         style="fill:#5d3f9e;fill-opacity:1" />
      <g
         id="g4503"
         style="fill:#5d3f9e;fill-opacity:1" />
      <g
         id="g4505"
         style="fill:#5d3f9e;fill-opacity:1" />
      <g
         id="g4507"
         style="fill:#5d3f9e;fill-opacity:1" />
      <g
         id="g4509"
         style="fill:#5d3f9e;fill-opacity:1" />
      <g
         id="g4511"
         style="fill:#5d3f9e;fill-opacity:1" />
      <g
         id="g4513"
         style="fill:#5d3f9e;fill-opacity:1" />
      <g
         id="g4515"
         style="fill:#5d3f9e;fill-opacity:1" />
      <g
         id="g4517"
         style="fill:#5d3f9e;fill-opacity:1" />
    </g>
  </g>
</svg>
